<svg xmlns="http://www.w3.org/2000/svg" version="1.1" width="866" height="330"><defs/><rect rx="5" ry="5" fill="#fff1e0" x="0" y="0" width="866" height="330" stroke-width="0" stroke="#4572A7"/><g class="highcharts-series-group" zIndex="3"/><g class="highcharts-point" zIndex="5" transform="translate(10,10)"><path d="M 125.5 137.5 A 0 0 0 0 1 125.5 137.5 L 125.5 137.5 A 0 0 0 0 0 125.5 137.5 Z" fill="#7FB4DB" stroke="#FFFFFF" stroke-width="1" stroke-linejoin="round"/><path d="M 124.97359886097101 7.375002688602308 A 129.625 129.625 0 0 1 194.59993391817852 246.35488020013182 L 125 137 A 0 0 0 0 0 125 137 Z" fill="rgb(192,192,192)" isTracker="1357829534149" fill-opacity="0.000001" visibility="visible" zIndex="1" style="cursor:default;"/></g><g class="highcharts-point" zIndex="5" transform="translate(10,10)"><path d="M 125.5 137.5 A 0 0 0 0 1 125.5 137.5 L 125.5 137.5 A 0 0 0 0 0 125.5 137.5 Z" fill="#9571A3" stroke="#FFFFFF" stroke-width="1" stroke-linejoin="round"/><path d="M 194.59982456326355 246.35494980001104 A 129.625 129.625 0 0 1 19.306014737443434 61.95719818451289 L 125 137 A 0 0 0 0 0 125 137 Z" fill="rgb(192,192,192)" isTracker="1357829534149" fill-opacity="0.000001" visibility="visible" zIndex="1" style="cursor:default;"/></g><g class="highcharts-point" zIndex="5" transform="translate(10,10)"><path d="M 125.5 137.5 A 0 0 0 0 1 125.5 137.5 L 125.5 137.5 A 0 0 0 0 0 125.5 137.5 Z" fill="#AE4C77" stroke="#FFFFFF" stroke-width="1" stroke-linejoin="round"/><path d="M 19.30608978029811 61.95709249056513 A 129.625 129.625 0 0 1 124.94944879391586 7.3750098569895215 L 125 137 A 0 0 0 0 0 125 137 Z" fill="rgb(192,192,192)" isTracker="1357829534149" fill-opacity="0.000001" visibility="visible" zIndex="1" style="cursor:default;"/></g><g class="highcharts-point" zIndex="5" transform="translate(10,10)"><path d="M 418 137.5 A 0 0 0 0 1 418 137.5 L 418 137.5 A 0 0 0 0 0 418 137.5 Z" fill="#7FB4DB" stroke="#FFFFFF" stroke-width="1" stroke-linejoin="round"/><path d="M 417.97359886097104 7.375002688602308 A 129.625 129.625 0 0 1 546.7687840426263 122.12583174817985 L 418 137 A 0 0 0 0 0 418 137 Z" fill="rgb(192,192,192)" isTracker="1357829534192" fill-opacity="0.000001" visibility="visible" zIndex="1" style="cursor:default;"/></g><g class="highcharts-point" zIndex="5" transform="translate(10,10)"><path d="M 418 137.5 A 0 0 0 0 1 418 137.5 L 418 137.5 A 0 0 0 0 0 418 137.5 Z" fill="#9571A3" stroke="#FFFFFF" stroke-width="1" stroke-linejoin="round"/><path d="M 546.7687989167302 122.12596051697133 A 129.625 129.625 0 0 1 289.33207381969544 152.72276685127943 L 418 137 A 0 0 0 0 0 418 137 Z" fill="rgb(192,192,192)" isTracker="1357829534192" fill-opacity="0.000001" visibility="visible" zIndex="1" style="cursor:default;"/></g><g class="highcharts-point" zIndex="5" transform="translate(10,10)"><path d="M 418 137.5 A 0 0 0 0 1 418 137.5 L 418 137.5 A 0 0 0 0 0 418 137.5 Z" fill="#AE4C77" stroke="#FFFFFF" stroke-width="1" stroke-linejoin="round"/><path d="M 289.3320580969929 152.7226381833454 A 129.625 129.625 0 0 1 417.94944879391585 7.3750098569895215 L 418 137 A 0 0 0 0 0 418 137 Z" fill="rgb(192,192,192)" isTracker="1357829534192" fill-opacity="0.000001" visibility="visible" zIndex="1" style="cursor:default;"/></g><g class="highcharts-point" zIndex="5" transform="translate(10,10)"><path d="M 710.5 137.5 A 0 0 0 0 1 710.5 137.5 L 710.5 137.5 A 0 0 0 0 0 710.5 137.5 Z" fill="#7FB4DB" stroke="#FFFFFF" stroke-width="1" stroke-linejoin="round"/><path d="M 710.973598860971 7.375002688602308 A 129.625 129.625 0 0 1 837.6128188411526 109.2180862772651 L 711 137 A 0 0 0 0 0 711 137 Z" fill="rgb(192,192,192)" isTracker="1357829534227" fill-opacity="0.000001" visibility="visible" zIndex="1" style="cursor:default;"/></g><g class="highcharts-point" zIndex="5" transform="translate(10,10)"><path d="M 710.5 137.5 A 0 0 0 0 1 710.5 137.5 L 710.5 137.5 A 0 0 0 0 0 710.5 137.5 Z" fill="#9571A3" stroke="#FFFFFF" stroke-width="1" stroke-linejoin="round"/><path d="M 837.612846623003 109.21821289009783 A 129.625 129.625 0 0 1 594.9410520873022 194.73180435771684 L 711 137 A 0 0 0 0 0 711 137 Z" fill="rgb(192,192,192)" isTracker="1357829534227" fill-opacity="0.000001" visibility="visible" zIndex="1" style="cursor:default;"/></g><g class="highcharts-point" zIndex="5" transform="translate(10,10)"><path d="M 710.5 137.5 A 0 0 0 0 1 710.5 137.5 L 710.5 137.5 A 0 0 0 0 0 710.5 137.5 Z" fill="#AE4C77" stroke="#FFFFFF" stroke-width="1" stroke-linejoin="round"/><path d="M 594.9409943555559 194.73168829874004 A 129.625 129.625 0 0 1 710.9494487939158 7.3750098569895215 L 711 137 A 0 0 0 0 0 711 137 Z" fill="rgb(192,192,192)" isTracker="1357829534227" fill-opacity="0.000001" visibility="visible" zIndex="1" style="cursor:default;"/></g><g class="highcharts-data-labels" visibility="visible" zIndex="6" transform="translate(10,10)"><text x="222.9683646579213" y="113.82369452463277" style="font-family:&quot;Lucida Grande&quot;, &quot;Lucida Sans Unicode&quot;, Verdana, Arial, Helvetica, sans-serif;font-size:11px;color:white;line-height:14px;font:normal 22px Georgia, sans-serif;fill:white;" text-anchor="middle" zIndex="1" visibility="visible"><tspan x="222.9683646579213">41</tspan></text><text x="51.74502755457213" y="212.26846655749654" style="font-family:&quot;Lucida Grande&quot;, &quot;Lucida Sans Unicode&quot;, Verdana, Arial, Helvetica, sans-serif;font-size:11px;color:white;line-height:14px;font:normal 22px Georgia, sans-serif;fill:white;" text-anchor="middle" zIndex="1" visibility="visible"><tspan x="51.74502755457213">43.8</tspan></text><text x="78.7523479101165" y="51.963582530365144" style="font-family:&quot;Lucida Grande&quot;, &quot;Lucida Sans Unicode&quot;, Verdana, Arial, Helvetica, sans-serif;font-size:11px;color:white;line-height:14px;font:normal 22px Georgia, sans-serif;fill:white;" text-anchor="middle" zIndex="1" visibility="visible"><tspan x="78.7523479101165">15.2</tspan></text></g><g class="highcharts-data-labels" visibility="visible" zIndex="6" transform="translate(10,10)"><text x="485.6035817065917" y="66.37249104352342" style="font-family:&quot;Lucida Grande&quot;, &quot;Lucida Sans Unicode&quot;, Verdana, Arial, Helvetica, sans-serif;font-size:11px;color:white;line-height:14px;font:normal 22px Georgia, sans-serif;fill:white;" text-anchor="middle" zIndex="1" visibility="visible"><tspan x="485.6035817065917">23.2</tspan></text><text x="429.9938447863695" y="243.1647576533803" style="font-family:&quot;Lucida Grande&quot;, &quot;Lucida Sans Unicode&quot;, Verdana, Arial, Helvetica, sans-serif;font-size:11px;color:white;line-height:14px;font:normal 22px Georgia, sans-serif;fill:white;" text-anchor="middle" zIndex="1" visibility="visible"><tspan x="429.9938447863695">49.9</tspan></text><text x="341.89382000305375" y="74.903953410223" style="font-family:&quot;Lucida Grande&quot;, &quot;Lucida Sans Unicode&quot;, Verdana, Arial, Helvetica, sans-serif;font-size:11px;color:white;line-height:14px;font:normal 22px Georgia, sans-serif;fill:white;" text-anchor="middle" zIndex="1" visibility="visible"><tspan x="341.89382000305375">26.9</tspan></text></g><g class="highcharts-data-labels" visibility="visible" zIndex="6" transform="translate(10,10)"><text x="774.2872112785761" y="63.05669381470421" style="font-family:&quot;Lucida Grande&quot;, &quot;Lucida Sans Unicode&quot;, Verdana, Arial, Helvetica, sans-serif;font-size:11px;color:white;line-height:14px;font:normal 22px Georgia, sans-serif;fill:white;" text-anchor="middle" zIndex="1" visibility="visible"><tspan x="774.2872112785761">21.6</tspan></text><text x="744.3752803639469" y="238.09816670827243" style="font-family:&quot;Lucida Grande&quot;, &quot;Lucida Sans Unicode&quot;, Verdana, Arial, Helvetica, sans-serif;font-size:11px;color:white;line-height:14px;font:normal 22px Georgia, sans-serif;fill:white;" text-anchor="middle" zIndex="1" visibility="visible"><tspan x="744.3752803639469">46.1</tspan></text><text x="624.1971459648988" y="88.7505846799332" style="font-family:&quot;Lucida Grande&quot;, &quot;Lucida Sans Unicode&quot;, Verdana, Arial, Helvetica, sans-serif;font-size:11px;color:white;line-height:14px;font:normal 22px Georgia, sans-serif;fill:white;" text-anchor="middle" zIndex="1" visibility="visible"><tspan x="624.1971459648988">32.3</tspan></text></g><g class="highcharts-tracker" zIndex="9" transform="translate(10,10)"/></svg>