<?xml version="1.0" encoding="windows-1252"?>
<!-- Generator: Adobe Illustrator 15.0.2, SVG Export Plug-In . SVG Version: 6.00 Build 0)  -->
<!DOCTYPE svg PUBLIC "-//W3C//DTD SVG 1.1//EN" "http://www.w3.org/Graphics/SVG/1.1/DTD/svg11.dtd">
<svg version="1.1" id="Layer_1" xmlns="http://www.w3.org/2000/svg" xmlns:xlink="http://www.w3.org/1999/xlink" x="0px" y="0px" width="166px" height="30px" viewBox="0 0 166 30.998" style="enable-background:new 0 0 166 30.998;" xml:space="preserve">
<path style="opacity:0.8;fill:#5C5959;" d="M85,30.5H59V0.5h26V30.5z M70.074,15.502V23h3.095v-7.498h2.064l0.268-2.608h-2.339  l0.015-0.915c0.014-0.844,0.021-0.93,0.107-1.043c0.223-0.299,0.253-0.307,1.267-0.331l0.927-0.023l0.013-1.292L75.501,8h-1.2  c-1.298,0-1.788,0.039-2.275,0.185c-0.977,0.29-1.547,0.887-1.826,1.912c-0.084,0.308-0.098,0.504-0.114,1.573l-0.021,1.224h-1.539  l-0.024,2.608H70.074L70.074,15.502z"/>
<path style="opacity:0.8;fill:#5C5959;" d="M112,30.5H86V0.5h26V30.5z M103.713,18.652c-0.357-0.357-0.787-0.536-1.289-0.536h-3.232  c-0.486,0-0.908-0.177-1.264-0.534c-0.357-0.357-0.537-0.778-0.537-1.263v-1.796h4.988c0.502,0,0.932-0.178,1.289-0.534  c0.355-0.356,0.535-0.784,0.535-1.284c0-0.499-0.18-0.926-0.535-1.282c-0.357-0.356-0.787-0.535-1.289-0.535h-4.967V9.069  c0-0.498-0.178-0.926-0.537-1.282c-0.355-0.356-0.785-0.535-1.283-0.535c-0.502,0-0.934,0.179-1.297,0.535  c-0.363,0.356-0.547,0.784-0.547,1.282v7.25c0,1.498,0.537,2.778,1.607,3.839c1.07,1.062,2.357,1.594,3.857,1.594h3.211  c0.502,0,0.932-0.178,1.289-0.535c0.355-0.355,0.535-0.783,0.535-1.281C104.249,19.435,104.069,19.007,103.713,18.652z"/>
<g>
	<path style="opacity:0.8;fill:#5C5959;" d="M139,30.5h-26V0.5h26V30.5z M122.545,22.501v-9.447h-3.109v9.447H122.545   L122.545,22.501z M120.991,11.765c1.084,0,1.758-0.725,1.758-1.633c-0.02-0.926-0.674-1.631-1.738-1.631   c-1.062,0-1.758,0.705-1.758,1.631c0,0.908,0.676,1.633,1.717,1.633H120.991L120.991,11.765z M124.264,22.501h3.109v-5.275   c0-0.283,0.02-0.565,0.102-0.767c0.225-0.564,0.736-1.149,1.596-1.149c1.125,0,1.572,0.867,1.572,2.137v5.054h3.109v-5.417   c0-2.901-1.533-4.251-3.578-4.251c-1.678,0-2.412,0.946-2.822,1.591h0.021v-1.37h-3.109   C124.305,13.94,124.264,22.501,124.264,22.501L124.264,22.501z"/>
</g>
<path style="opacity:0.8;fill:#5C5959;" d="M166,30.5h-26V0.5h26V30.5z M162.54,10.618h-3.608V7.923h-0.899v2.695h-2.708v0.899  h2.708v3.594h0.899v-3.594h3.608V10.618z M152.182,16.604c-0.418-0.294-1.216-1.012-1.216-1.435c0-0.494,0.141-0.737,0.886-1.32  c0.764-0.595,1.303-1.368,1.303-2.342c0-1.16-0.516-2.598-1.485-2.598h1.461l1.033-0.876c0,0-3.459,0-4.612,0  c-2.068,0-4.015,1.566-4.015,3.38c0,1.854,1.411,3.35,3.513,3.35c0.146,0,0.29-0.002,0.429-0.013  c-0.137,0.261-0.235,0.557-0.235,0.861c0,0.515,0.278,0.934,0.629,1.273c-0.267,0-0.52,0.007-0.798,0.007  c-2.563,0-4.534,1.631-4.534,3.322c0,1.664,2.16,2.707,4.722,2.707c2.921,0,4.532-1.654,4.532-3.321  C153.793,18.267,153.401,17.466,152.182,16.604z M149.833,14.323c-1.152-0.034-2.248-1.293-2.449-2.812  c-0.197-1.52,0.574-2.683,1.727-2.648c1.154,0.035,2.25,1.254,2.447,2.773C151.758,13.154,150.985,14.357,149.833,14.323z   M149.227,22.22c-1.778,0-3.062-1.126-3.062-2.479c0-1.327,1.593-2.43,3.372-2.41c0.415,0.005,0.802,0.072,1.154,0.185  c0.966,0.672,1.656,1.051,1.854,1.815c0.034,0.155,0.056,0.315,0.056,0.479C152.601,21.164,151.729,22.22,149.227,22.22z"/>
<g>

		<rect x="0.499" y="0.499" style="opacity:0.8;fill:none;stroke:#5C5959;stroke-width:0.9972;stroke-miterlimit:10;" width="57" height="30"/>
	<g style="opacity:0.8;">
		<path style="fill:#5C5959;" d="M9.931,18.437l0.883-0.408c0.442,1.224,1.312,1.831,2.504,1.831c1.241,0,2.063-0.545,2.063-1.509    c0-0.903-0.477-1.349-2.218-1.918c-1.837-0.581-2.934-1.101-2.934-2.685c0-1.397,1.157-2.424,2.838-2.424    c1.682,0,2.66,0.89,3.113,2.054l-0.835,0.482c-0.477-1.102-1.24-1.547-2.29-1.547c-1.12,0-1.789,0.568-1.789,1.349    c0,0.977,0.596,1.299,2.326,1.868c1.777,0.569,2.826,1.188,2.826,2.745c0,1.509-1.276,2.549-3.148,2.549    C11.589,20.825,10.396,19.884,9.931,18.437z"/>
		<path style="fill:#5C5959;" d="M17.973,11.498h1.05v3.835h4.543v-3.835h1.048v9.153h-1.048v-4.316h-4.543v4.316h-1.05V11.498z"/>
		<path style="fill:#5C5959;" d="M28.973,11.46h1.097l3.124,9.19h-1.084l-0.871-2.622h-3.505l-0.871,2.622h-1.014L28.973,11.46z     M30.917,17.077l-1.407-4.293h-0.024l-1.432,4.293H30.917z"/>
		<path style="fill:#5C5959;" d="M34.427,11.498h3.028c2.003,0,3.137,0.879,3.137,2.561c0,1.473-0.799,2.239-2.051,2.511l2.17,4.082    h-1.145l-2.111-3.946h-1.991v3.946h-1.037V11.498z M37.396,15.74c1.383,0,2.159-0.396,2.159-1.645c0-1.199-0.763-1.608-2.17-1.608    h-1.92v3.253H37.396z"/>
		<path style="fill:#5C5959;" d="M42.267,11.498h5.414V12.5h-4.364v2.857h3.243v0.978h-3.243v3.326h4.614v0.99h-5.664V11.498z"/>
	</g>
</g>
</svg>